# xmcd CD database file
#
# Track frame offsets:
#	150
#	16337
#	32736
#	49389
#	61605
#	76587
#	92407
#	106495
#	120341
#	136146
#	150642
#	167488
#	182745
#	207785
#	235830
#	256862
#	290645
#	315375
#
# Disc length: 4659 seconds
#
# Revision: 1
# Processed by: cddbd v1.5.2PL0 Copyright (c) Steve Scherf et al.
# Submitted via: CDex 1.51
#
DISCID=da123112
DTITLE=Roy Eldridge - Seven Classic Albums CD2
DYEAR=1956
DGENRE=Jazz
TTITLE0=Dale's Wail
TTITLE1=Love For Sale
TTITLE2=The Man I Love
TTITLE3=Oscar's Arrangement
TTITLE4=Willow Weep For Me
TTITLE5=Somebody Loves Me
TTITLE6=When your Lover Has Gone
TTITLE7=When It's Sleepy time Down South
TTITLE8=Feeling A Draft
TTITLE9=Don't Blame Me
TTITLE10=Echoes Of Harlem
TTITLE11=I Can't Get Started
TTITLE12=That's A Plenty
TTITLE13=Royal Garden Blues
TTITLE14=Jazz Me Blues
TTITLE15=Tin Roof Blues
TTITLE16=Struttin' With Some Barbecue
TTITLE17=Black And Blue
EXTD=YEAR: 1956
EXTT0=
EXTT1=
EXTT2=
EXTT3=
EXTT4=
EXTT5=
EXTT6=
EXTT7=
EXTT8=
EXTT9=
EXTT10=
EXTT11=
EXTT12=
EXTT13=
EXTT14=
EXTT15=
EXTT16=
EXTT17=
PLAYORDER=
